<?xml version="1.0" encoding="UTF-8"?>
<svg width="256px" height="256px" viewBox="0 0 256 256" version="1.1" xmlns="http://www.w3.org/2000/svg">
    <path d="M127.999,0 C57.423,0 0,57.423 0,128.001 C0,198.585 57.423,256.001 127.999,256.001 C198.577,256.001 256,198.585 256,128.001 C256,57.423 198.577,0 127.999,0" fill="#85EA2D"/>
    <path d="M127.999,30.77 C74.019,30.77 30.768,74.022 30.768,128.001 C30.768,181.977 74.019,225.231 127.999,225.231 C181.979,225.231 225.23,181.977 225.23,128.001 C225.23,74.022 181.979,30.77 127.999,30.77" fill="#173647"/>
    <path d="M71.592,128.001 L93.105,149.514 L127.999,114.62 L162.893,149.514 L184.406,128.001 L127.999,71.594 L71.592,128.001" fill="#85EA2D"/>
</svg>
